# xmcd
#
# Track frame offsets:
#	150
#	24225
#	46513
#	63608
#	92210
#	110398
#	138545
#	159223
#	187825
#	221495
#
# Disc length: 3308 seconds
#
# Revision: 3
# Processed by: cddbd v1.4PL0 Copyright (c) Steve Scherf et al.
# Submitted via: dBpowerAMP V4.0
#
DISCID=7a0cea0a
DTITLE=Jeannie and Jimmy Cheatham - Back To The Neighborhood
DYEAR=1900
DGENRE=blues
TTITLE0=What Goes 'Round Comes Around
TTITLE1=Salty Papa
TTITLE2=Big Bubb's Back Rub Boogie Blues
TTITLE3=In The Dark
TTITLE4=Back To The 'Hood
TTITLE5=Rock Me In Your Arms Tonight
TTITLE6=Evenin'
TTITLE7=Call Me Darling
TTITLE8=After Hours
TTITLE9=Take The Wrinkles Our Of Your Birthday Suit
EXTD=1989 Concord Jazz  CCD-4373\nRecorded at Ocean Way Recording, Hollywood, Ca, 1988, by Allen Sides and Eric Rudd. Mastered by George Horn.
EXTT0=
EXTT1=
EXTT2=
EXTT3=
EXTT4=
EXTT5=
EXTT6=
EXTT7=
EXTT8=
EXTT9=
PLAYORDER=
